PathFileType	4	(X/Y/Z)	C:\Users\WrightLab\Desktop\Jo\P3_7.trc
DataRate	CameraRate	NumFrames	NumMarkers	Units	OrigDataRate	OrigDataStartFrame	OrigNumFrames
100.00	100.00	       13	19	mm	100.00	217	       576
Frame#	Time	Headset_Front			Headset_Back			Headset_Left			Headset_Right			Left_Shoulder			Right_Shoulder			Sternum			C7			Left Elbow			Right Elbow			Left Wrist			Right Wrist			Left ASIS			Right ASIS			S2			Left Knee			Right Knee			Left Ankle			Right Ankle			
		X1	Y1	Z1	X2	Y2	Z2	X3	Y3	Z3	X4	Y4	Z4	X5	Y5	Z5	X6	Y6	Z6	X7	Y7	Z7	X8	Y8	Z8	X9	Y9	Z9	X10	Y10	Z10	X11	Y11	Z11	X12	Y12	Z12	X13	Y13	Z13	X14	Y14	Z14	X15	Y15	Z15	X16	Y16	Z16	X17	Y17	Z17	X18	Y18	Z18	X19	Y19	Z19	

217	2.160	-451.65903	1504.54102	190.11296	-567.71625	1599.02344	-74.21634	-422.88684	1548.91980	-12.95392	-590.31360	1540.96326	139.27032	-399.64841	1329.88025	-102.35455	-709.05347	1344.14124	71.71342	-492.39227	1209.36255	89.73838	-584.39124	1388.90771	-54.74449	-353.60745	995.19440	-140.75372	-815.64709	1008.26312	95.92579	-312.44418	821.08221	-32.32370	-769.89709	826.74542	230.90494	-432.96265	849.13629	8.77233	-650.76563	864.34839	131.83369	-638.30066	939.28540	-115.38277	-362.96451	475.04666	124.32798	-692.85693	436.06424	88.42181	-479.21893	193.01657	-20.14680	-738.74823	107.18326	19.97642	
218	2.170	-448.03143	1505.22009	197.96857	-563.56085	1597.96204	-66.37135	-418.61566	1548.08374	-3.68796	-586.05359	1541.18274	146.31618	-396.00690	1329.74133	-96.34511	-704.10425	1344.21802	80.92304	-486.99051	1208.81592	96.72704	-580.30688	1388.68311	-46.20219	-351.66342	994.54492	-135.36240	-811.67218	1009.11377	106.45717	-309.19244	820.14471	-27.31568	-764.54913	827.28821	241.28889	-429.57867	849.66992	14.33404	-645.95325	862.99756	136.88690	-636.11359	939.58868	-108.62086	-355.93674	477.13336	131.85440	-691.27130	435.58167	90.99475	-466.69910	186.00778	1.15155	-738.22925	107.59878	20.43398	
219	2.180	-443.42145	1505.24487	205.37543	-559.25214	1597.25085	-58.86062	-413.97849	1547.43237	3.62332	-581.88745	1541.31982	153.21375	-393.18530	1329.22363	-89.67484	-699.19690	1344.09888	90.47473	-482.14377	1207.74048	103.05767	-576.44714	1387.83606	-38.16898	-349.30936	994.29718	-130.24950	-807.80420	1009.13232	118.33587	-305.37891	819.57831	-23.57742	-759.79968	827.49902	252.31187	-426.21796	848.54126	19.53840	-642.26471	863.12341	145.56537	-634.26086	939.52478	-100.81693	-348.96384	479.14090	138.04378	-688.89172	434.50800	94.74322	-452.29788	179.17429	21.61290	-737.46814	107.66133	21.24509	
220	2.190	-438.66864	1505.24487	212.79123	-554.83154	1596.30029	-51.57632	-409.65570	1547.43677	8.33923	-576.59692	1540.65381	161.74850	-389.27621	1328.96448	-83.00110	-694.13739	1343.73267	99.96226	-477.26553	1206.95789	110.19711	-572.65503	1387.74878	-30.37333	-346.45737	994.09515	-124.71696	-803.62878	1009.91913	128.36955	-301.58569	818.97418	-19.39940	-755.04834	828.76282	264.83563	-422.60730	848.65436	25.81995	-636.53711	862.37024	156.80420	-631.91382	939.96863	-93.85774	-342.18381	480.88455	145.62488	-686.64227	433.86728	97.99731	-437.38406	172.50153	42.59619	-737.52502	108.45905	21.41247	
221	2.200	-434.36920	1505.34241	220.36752	-550.28839	1595.44348	-43.99175	-405.02011	1546.49634	17.40470	-571.96277	1540.33936	169.36162	-385.66245	1328.58789	-76.19484	-689.13696	1343.68359	108.20295	-472.81836	1205.99780	116.85678	-568.46912	1387.20776	-23.01100	-343.91260	993.59296	-119.14699	-798.93463	1009.70923	139.76193	-298.10165	817.85864	-15.05451	-749.15216	829.01489	274.70984	-418.96582	848.42468	31.34547	-632.63226	862.56793	165.93533	-629.03235	939.77386	-85.75636	-336.20010	481.54218	150.71803	-684.37415	433.17307	100.84043	-422.26065	166.02405	62.84745	-737.28217	108.60558	22.08727	
222	2.210	-428.65799	1504.73352	227.22780	-545.67615	1594.70129	-36.68394	-400.23148	1545.56763	25.38628	-566.77966	1539.46399	176.62679	-381.74475	1327.84802	-69.46047	-683.89185	1343.59924	116.49144	-468.04208	1204.98181	124.09133	-564.04639	1386.69067	-14.72806	-342.16885	992.73035	-114.18172	-794.69989	1009.95276	150.38274	-294.00784	816.81049	-11.80363	-743.88916	829.34186	285.18976	-414.12320	848.43195	37.55216	-628.67676	859.43262	166.92702	-625.80774	938.64667	-78.05311	-330.46585	481.78360	156.68668	-681.49194	432.03827	105.28033	-405.38803	159.11099	83.24899	-736.49646	109.03574	22.99841	
223	2.220	-423.36322	1504.38574	234.40286	-541.08942	1593.51550	-29.65107	-395.41547	1545.32861	30.35730	-561.53534	1539.03381	184.02161	-377.74725	1326.84277	-63.05000	-679.16125	1343.05237	125.00231	-463.21854	1203.34399	130.74844	-559.99500	1386.43396	-7.40727	-337.78320	992.54749	-108.48071	-789.73041	1009.93268	160.79366	-290.04590	815.15881	-7.08687	-738.64917	829.71698	296.23669	-411.84561	847.50677	43.83308	-623.83630	856.77112	173.68698	-622.08899	938.11285	-70.24561	-323.81317	481.58856	160.40240	-679.76355	432.08856	108.20327	-388.32111	153.78810	103.80402	-735.52710	109.01801	24.00188	
224	2.230	-418.49814	1504.01343	241.90321	-536.22400	1592.73096	-22.53525	-390.62466	1544.63220	37.69720	-556.69476	1538.59058	191.54529	-372.83130	1325.88379	-55.64384	-673.96326	1342.54260	133.39630	-458.82733	1203.16052	138.73514	-555.06757	1385.05225	0.61469	-335.36511	991.21466	-102.33022	-784.90509	1009.36475	171.35533	-286.44000	813.84778	-3.02151	-732.36395	829.84937	306.26620	-407.03363	847.45551	50.56006	-619.45856	857.42114	182.31567	-618.64783	937.77222	-62.25050	-319.94681	480.37695	164.99562	-676.57898	430.82892	111.63351	-370.90845	148.27443	124.91015	-735.31061	109.86121	22.98501	
225	2.240	-413.00766	1503.14795	249.25124	-531.35529	1591.70740	-15.11528	-385.31613	1543.59595	46.05088	-551.99573	1537.79871	199.19557	-368.45663	1325.31836	-48.33718	-668.81567	1342.43335	141.18478	-453.64612	1201.41479	145.27194	-550.55499	1384.69946	8.65122	-329.56918	991.10614	-96.68159	-780.10291	1009.44855	181.39316	-281.68182	811.87305	0.52296	-726.32532	830.12164	316.71841	-403.21432	846.37006	57.97448	-618.15289	853.13928	182.27444				-315.80179	479.19034	167.59450	-675.21100	430.81161	115.39297	-353.10596	143.93040	144.06163	-735.10999	110.37567	24.23615	
226	2.250	-407.14703	1502.48560	256.39746	-526.25787	1590.87109	-7.10367	-380.40018	1542.88037	52.80299	-545.84808	1536.73914	206.84158	-363.64627	1324.12097	-40.67332	-663.71039	1341.79724	148.98456	-448.59290	1201.14673	152.66284	-545.38477	1383.89832	15.69837	-327.41956	989.70593	-90.47728	-774.46405	1008.89380	190.95065	-277.20551	810.29944	4.56881	-720.06635	830.12531	326.29752	-398.11761	846.29962	65.02648	-613.92786	852.40283	190.63287	-610.98560	936.03546	-48.50653	-311.42459	476.56772	171.91838	-673.79877	430.72156	117.86241	-334.51672	140.07655	162.87392	-734.55255	110.90047	24.84003	
227	2.260	-401.41107	1501.28101	263.79697	-521.20233	1590.08044	0.24917	-375.11362	1541.59546	61.55221	-540.13910	1535.93030	214.32173	-359.08087	1323.06482	-34.11746	-658.19995	1341.28223	156.20419	-443.46066	1199.91455	159.53444	-540.41235	1382.72046	23.23634	-322.56808	988.86053	-84.76777	-769.33191	1008.75677	199.84752	-272.92084	807.88971	8.78728	-714.13428	830.33386	336.25021	-393.53427	845.12616	72.79142	-608.99335	851.86578	197.27628	-606.26178	935.21082	-39.66494	-307.55890	473.88577	174.55598	-670.91028	429.81097	122.02555	-316.22900	137.09084	181.15671	-733.38959	111.62954	25.68287	
228	2.270	-396.08603	1500.54932	271.12137	-516.15594	1589.06384	7.72820	-369.78854	1540.36304	68.74795	-534.42261	1534.49622	221.86053	-354.13058	1322.19177	-26.65673	-652.97687	1340.29834	164.07095	-438.49658	1199.20691	166.78241	-535.58600	1381.78625	29.85492	-316.32089	987.61688	-77.67215	-763.58411	1008.11310	208.94916	-268.72729	806.10901	13.48992	-707.43689	830.36444	346.37375	-388.63025	844.16296	79.71161	-604.11713	850.54163	206.05016				-304.75989	470.63480	177.95409	-669.03992	429.65305	124.91674	-298.88071	135.61580	198.97572	-733.21307	112.01189	26.54207	
229	2.280	-389.80368	1498.97852	278.11221	-510.88120	1588.40259	15.46773	-364.40640	1539.36938	74.38958	-528.67731	1533.77222	229.48183	-348.81924	1320.82043	-19.24571	-647.63129	1339.28589	171.73679	-433.05804	1198.04407	174.70219	-530.24072	1380.40027	37.58871	-312.56100	986.80951	-71.04781	-758.06274	1007.12805	218.32657	-264.94659	803.54297	17.21407	-700.89697	830.49762	356.73700	-383.55762	843.39893	87.71849	-599.13947	849.84088	213.19315				-301.61566	467.32904	180.62996	-666.45654	429.58664	129.01276	-281.99179	135.05508	214.76395	-733.00385	110.73120	22.68709	
